<?xml version="1.0" standalone="no"?>
<!DOCTYPE svg PUBLIC "-//W3C//DTD SVG 20010904//EN"
 "http://www.w3.org/TR/2001/REC-SVG-20010904/DTD/svg10.dtd">
<svg version="1.0" xmlns="http://www.w3.org/2000/svg"
 width="1024.000000pt" height="1024.000000pt" viewBox="0 0 1024.000000 1024.000000"
 preserveAspectRatio="xMidYMid meet">

<g transform="translate(0.000000,1024.000000) scale(0.100000,-0.100000)"
fill="#000000" stroke="none">
<path d="M0 5120 l0 -5120 5120 0 5120 0 0 5120 0 5120 -5120 0 -5120 0 0
-5120z m4583 3234 c50 -26 144 -86 234 -149 23 -17 44 -39 47 -50 8 -29 -10
-139 -39 -235 -14 -47 -61 -296 -105 -555 -44 -258 -85 -482 -91 -498 -16 -38
-82 -111 -370 -409 -247 -256 -248 -257 -268 -325 -12 -40 -29 -158 -41 -283
-26 -258 -46 -418 -60 -470 -6 -21 -28 -60 -49 -87 -44 -54 -579 -587 -716
-713 l-90 -82 -3 483 -2 484 40 33 40 34 0 157 c0 156 0 158 25 181 l26 24
-73 73 c-40 40 -77 73 -83 73 -6 0 -26 -16 -45 -35 l-33 -34 71 -80 72 -79 0
-124 0 -123 -42 -30 c-23 -16 -68 -51 -100 -77 l-58 -49 0 -354 0 -354 -92
-81 -93 -81 -8 34 c-8 33 -6 37 52 92 l61 58 0 326 0 326 -82 -1 -83 -1 -92
-88 -93 -88 0 -111 0 -111 35 -22 c72 -47 67 -157 -11 -189 -44 -18 -84 -11
-124 22 -54 46 -47 127 14 168 26 16 26 18 26 150 l0 134 106 100 107 100 108
8 109 7 105 79 105 78 0 74 c0 111 -10 114 -118 27 -49 -39 -95 -77 -102 -86
-10 -13 -47 -15 -226 -15 l-213 0 -140 -167 c-132 -159 -140 -170 -141 -211 0
-58 -25 -98 -78 -123 -55 -27 -98 -20 -140 24 -64 66 -62 138 5 197 33 30 40
32 92 27 31 -2 63 -7 72 -11 13 -6 51 34 165 168 l149 175 220 1 220 1 81 67
81 68 -52 57 -51 58 -57 -41 -58 -42 -338 3 -338 2 -108 -116 c-59 -64 -110
-117 -114 -117 -3 1 -25 5 -48 9 -32 6 -43 5 -47 -5 -9 -23 -69 -54 -104 -54
-23 0 -43 10 -69 34 -32 29 -38 41 -38 74 0 48 26 80 84 107 36 16 41 16 70 1
17 -9 41 -30 53 -46 16 -23 30 -30 54 -30 28 0 45 14 135 110 l102 110 237 0
236 0 35 72 34 71 130 -2 130 -2 35 -35 36 -34 33 34 34 35 -29 36 -29 35
-440 -6 -440 -6 -25 -23 c-54 -50 -96 -57 -147 -25 -108 66 -60 220 69 220 42
0 96 -33 103 -63 6 -23 11 -24 128 -30 67 -4 275 -10 461 -14 l339 -6 34 -30
34 -30 57 54 c31 30 74 70 95 89 l37 34 38 -34 37 -35 -37 39 -36 39 -57 -49
c-31 -27 -61 -48 -67 -46 -5 1 -7 -2 -3 -8 3 -5 -1 -10 -9 -10 -32 0 -24 21
30 72 31 29 67 60 80 68 22 13 26 12 60 -20 19 -19 67 -72 106 -117 l70 -83
69 0 69 0 0 -229 c0 -174 -3 -231 -12 -234 -8 -3 -6 -6 5 -6 16 -1 17 17 17
239 l0 240 -73 0 -74 0 -44 53 c-72 87 -161 177 -175 177 -7 0 -45 -30 -84
-66 -54 -49 -76 -63 -88 -57 -10 4 -196 10 -414 13 l-398 5 42 70 c52 87 120
155 188 190 29 15 150 51 269 81 162 41 220 60 234 75 14 18 17 43 17 166 l0
144 -68 72 c-119 125 -157 216 -156 367 2 148 49 255 158 358 94 89 206 132
347 132 146 0 244 -40 345 -141 74 -72 120 -165 129 -261 6 -66 12 -81 61
-157 30 -46 54 -88 54 -94 0 -6 -19 -27 -42 -49 l-41 -38 -1 -100 c-1 -97 -2
-100 -31 -129 -33 -33 -121 -61 -192 -61 l-43 0 0 -103 c0 -114 12 -147 56
-147 21 0 410 225 616 356 l66 43 70 178 c38 98 107 275 152 394 l82 217 -105
104 c-115 115 -145 158 -129 192 12 27 168 227 190 244 23 17 36 15 95 -14z
m847 -1714 l0 -260 280 0 280 0 0 260 0 260 140 0 140 0 0 -655 0 -655 -140 0
-140 0 0 270 0 270 -280 0 -280 0 0 -270 0 -270 -135 0 -135 0 0 655 0 655
135 0 135 0 0 -260z m1950 140 l0 -120 -290 0 -290 0 2 -167 3 -168 243 0 242
0 0 -112 0 -113 -242 -2 -243 -3 -2 -250 -1 -250 -136 -3 -136 -3 0 656 0 655
425 0 425 0 0 -120z m1250 0 l0 -120 -200 0 -200 0 0 -535 0 -535 -135 0 -135
0 0 535 0 535 -210 0 -210 0 0 120 0 120 545 0 545 0 0 -120z m-3390 -1665 l0
-85 85 0 85 0 0 85 0 85 40 0 40 0 0 -216 0 -215 -41 3 -42 3 0 87 1 87 -84 3
-84 3 0 -92 0 -93 -45 0 -45 0 0 215 0 215 45 0 45 0 0 -85z m450 -55 c0 -183
12 -210 94 -210 22 0 40 8 57 26 23 25 24 31 24 175 l0 149 43 0 42 0 0 -148
c0 -133 -2 -152 -22 -192 -31 -61 -92 -93 -166 -87 -59 4 -94 25 -129 77 -21
31 -23 44 -23 191 l0 159 40 0 40 0 0 -140z m498 118 c5 -13 30 -83 57 -156
l48 -134 56 156 55 156 58 0 59 0 -1 -215 -1 -215 -40 0 -39 0 0 158 0 157
-36 -100 c-20 -55 -45 -126 -56 -158 -20 -57 -21 -58 -56 -55 l-35 3 -56 155
-56 154 -3 -157 -3 -157 -34 0 -35 0 0 215 0 215 55 0 c49 0 57 -3 63 -22z
m731 -146 c35 -92 72 -189 83 -215 l18 -48 -46 3 c-45 3 -47 5 -64 48 l-18 45
-83 3 -84 3 -18 -51 c-17 -49 -19 -50 -57 -50 -22 0 -40 3 -40 8 0 4 34 100
77 215 l78 207 45 0 45 0 64 -168z m351 28 c51 -77 93 -140 94 -140 1 0 0 63
-2 140 l-4 140 41 0 41 0 0 -215 0 -215 -37 0 c-38 0 -39 1 -130 143 l-93 142
0 -142 0 -143 -40 0 -40 0 0 215 0 215 39 0 c38 0 38 0 131 -140z m-1510 -482
c36 -18 48 -32 59 -63 18 -54 8 -107 -29 -143 l-28 -29 24 -44 c14 -24 36 -63
50 -86 l25 -43 -49 0 -48 0 -39 68 c-52 91 -50 89 -90 84 l-35 -4 0 -74 0 -74
-40 0 -40 0 0 209 0 210 28 4 c84 13 169 7 212 -15z m1133 11 c85 -23 140
-103 140 -205 0 -157 -101 -232 -289 -216 l-64 5 0 208 c0 207 0 208 23 212
45 9 153 7 190 -4z m527 -9 c141 -72 148 -307 12 -388 -38 -22 -59 -27 -107
-26 -34 0 -73 8 -91 17 -45 23 -91 81 -105 129 -21 80 6 193 58 240 54 50 165
63 233 28z m-2002 -25 l0 -35 -89 0 -89 0 0 -50 0 -50 86 0 85 0 -3 -37 -3
-36 -82 2 -83 2 0 -90 0 -91 -45 0 -45 0 0 210 0 210 134 0 134 0 0 -35z m780
-2 l-3 -36 -87 2 -88 2 0 -50 0 -51 81 0 80 0 -3 -37 -3 -38 -77 3 -78 2 0
-55 0 -55 90 0 90 0 0 -35 0 -35 -130 0 -130 0 0 210 0 210 131 0 130 0 -3
-37z m372 0 l0 -38 -90 3 -90 3 0 -50 0 -51 80 0 80 0 0 -39 0 -38 -80 1 -80
1 0 -52 0 -53 90 0 90 0 0 -35 0 -35 -130 0 -130 0 0 210 0 210 130 0 130 0 0
-37z m1224 -110 c50 -138 66 -171 66 -142 0 8 22 75 49 149 l49 135 56 3 56 3
0 -211 0 -210 -35 0 -35 0 0 158 -1 157 -57 -158 -57 -158 -34 3 -35 3 -55
150 -56 150 -3 -152 -3 -153 -34 0 -35 0 0 210 0 211 56 -3 57 -3 51 -142z
m-2334 -488 l0 -35 -60 0 -60 0 0 -177 0 -178 -40 0 -40 0 0 178 0 179 -60 -4
-60 -3 0 38 0 37 160 0 160 0 0 -35z m372 6 c61 -39 88 -95 88 -185 0 -100
-40 -166 -122 -201 -102 -42 -230 12 -270 114 -19 48 -12 145 12 196 34 70 94
105 180 105 56 0 73 -5 112 -29z m280 -60 l3 -90 65 87 c64 86 65 87 113 90
43 3 61 -8 38 -22 -5 -3 -35 -40 -66 -81 l-58 -76 24 -32 c42 -57 139 -201
139 -206 0 -3 -20 -5 -45 -5 l-46 1 -61 89 c-34 49 -63 91 -64 93 -2 2 -12 -7
-23 -20 -16 -19 -20 -39 -21 -90 l0 -67 -40 -4 -40 -4 0 213 0 213 40 0 39 0
3 -89z m598 49 l0 -40 -90 0 -90 0 0 -45 0 -45 80 0 80 0 0 -40 0 -40 -80 0
-80 0 0 -50 0 -50 90 0 90 0 0 -30 c0 -16 0 -33 0 -36 0 -3 -58 -6 -130 -7
l-130 -2 0 213 0 212 130 0 130 0 0 -40z m277 -100 c48 -76 90 -139 93 -140 3
0 4 63 2 140 l-4 140 41 0 41 0 0 -212 0 -213 -37 1 c-37 0 -39 2 -130 139
l-93 139 0 -136 0 -136 -36 -4 c-19 -2 -37 -2 -38 1 -2 3 -4 99 -5 214 l-1
207 39 0 39 0 89 -140z m-307 -880 l0 -70 33 20 c40 25 73 25 114 0 40 -24 53
-67 53 -182 l0 -88 -35 0 -35 0 0 97 c0 108 -11 133 -62 133 -54 0 -68 -28
-68 -135 l0 -95 -30 0 -29 0 -3 195 -3 195 33 0 32 0 0 -70z m-3251 30 c77
-39 117 -113 109 -205 -6 -75 -28 -105 -78 -105 -26 0 -42 6 -50 18 -9 16 -11
16 -20 0 -16 -26 -75 -34 -106 -13 -58 38 -69 151 -19 201 27 27 92 33 113 12
9 -9 12 -9 12 0 0 7 10 12 23 12 21 0 22 -3 19 -82 -2 -64 1 -88 12 -103 16
-20 16 -20 36 4 40 47 21 149 -39 205 -25 24 -42 30 -88 34 -48 3 -64 0 -93
-20 -40 -27 -80 -98 -80 -143 0 -122 104 -214 211 -187 31 8 39 7 44 -6 10
-26 -12 -36 -79 -36 -88 0 -148 36 -189 114 -25 48 -28 63 -25 122 3 55 9 75
33 110 57 81 170 112 254 68z m3061 -30 c0 -38 2 -40 30 -40 25 0 30 -4 30
-25 0 -21 -5 -25 -30 -25 l-31 0 3 -87 c3 -88 3 -88 31 -91 21 -3 27 -9 27
-28 0 -25 -10 -29 -60 -25 -47 4 -60 33 -60 137 0 94 0 94 -25 94 -20 0 -25 5
-25 25 0 20 5 25 26 25 24 0 26 3 22 40 -3 39 -3 40 29 40 32 0 33 -1 33 -40z
m-2690 -48 c50 -25 60 -52 60 -169 l0 -103 -30 0 c-19 0 -30 5 -30 14 0 11 -8
10 -37 -5 -48 -24 -80 -24 -121 1 -31 19 -33 24 -30 67 4 61 31 81 121 90 71
6 78 13 51 51 -19 28 -67 29 -94 2 -21 -21 -70 -28 -70 -9 0 23 23 51 53 64
44 19 85 18 127 -3z m292 13 c3 -3 3 -17 0 -30 -3 -18 -11 -25 -28 -25 -13 0
-33 -9 -44 -20 -17 -17 -20 -33 -20 -115 l0 -95 -35 0 -35 0 0 140 0 140 35 0
c29 0 35 -4 35 -21 0 -21 1 -20 21 5 18 23 57 35 71 21z m142 -85 c18 -47 36
-94 40 -105 6 -15 16 4 45 84 36 102 38 104 69 105 18 1 32 -1 32 -3 0 -7
-100 -272 -122 -324 -24 -56 -61 -80 -107 -71 -17 4 -31 10 -31 14 0 24 15 40
36 40 23 0 54 33 54 57 0 7 -25 71 -55 142 -30 71 -55 134 -55 139 0 5 14 9
31 8 29 -1 32 -5 63 -86z m443 66 l28 -24 28 24 c30 26 60 30 101 14 43 -16
56 -57 56 -175 l0 -105 -30 0 -30 0 0 93 c0 68 -4 99 -16 115 -18 26 -56 29
-78 6 -18 -17 -20 -35 -17 -141 l2 -73 -36 0 -35 0 0 99 c0 107 -10 131 -52
131 -47 0 -58 -26 -58 -132 l0 -98 -35 0 -35 0 0 140 0 140 35 0 c26 0 35 -4
35 -17 0 -14 2 -15 18 -1 39 34 81 36 119 4z m782 13 c30 -11 51 -35 51 -58 0
-16 -49 -13 -66 4 -20 19 -68 19 -84 0 -22 -26 -3 -43 61 -56 76 -15 99 -35
99 -88 0 -31 -6 -44 -26 -60 -35 -27 -88 -36 -134 -22 -39 12 -84 56 -74 72
10 16 54 9 74 -11 24 -24 72 -26 91 -4 21 26 -1 46 -66 61 -74 17 -95 35 -95
83 0 70 83 109 169 79z m336 -22 l20 -23 22 26 c29 34 102 36 135 2 21 -20 23
-33 26 -142 l4 -120 -31 0 -31 0 0 93 c0 102 -14 137 -54 137 -46 0 -58 -30
-57 -135 l2 -95 -36 0 -35 0 0 99 c0 107 -10 131 -52 131 -47 0 -58 -26 -58
-132 l0 -98 -33 0 -33 0 0 140 0 140 33 0 c24 0 33 -4 33 -17 0 -14 2 -15 18
-1 39 34 94 32 127 -5z m502 -11 c26 -28 33 -44 33 -76 l0 -40 -100 0 c-89 0
-100 -2 -100 -18 0 -56 73 -88 121 -53 30 22 79 29 79 10 0 -22 -58 -68 -96
-75 -91 -17 -164 45 -164 140 0 100 61 162 150 153 35 -4 51 -13 77 -41z
m-1267 -59 c0 -107 13 -137 60 -137 51 0 70 38 70 141 l0 89 30 0 30 0 0 -140
0 -140 -30 0 c-24 0 -30 4 -30 22 l0 22 -20 -22 c-27 -29 -61 -36 -105 -22
-53 17 -65 50 -65 175 l0 105 30 0 30 0 0 -93z m-980 -532 c0 -21 -5 -25 -30
-25 -25 0 -30 4 -30 25 0 21 5 25 30 25 25 0 30 -4 30 -25z m482 -170 c-69
-180 -77 -195 -100 -195 -15 0 -22 4 -19 13 3 6 33 84 66 172 84 219 77 205
104 205 24 0 23 -4 -51 -195z m-1042 0 l0 -185 -25 0 -25 0 0 185 0 185 25 0
25 0 0 -185z m300 0 l0 -185 -25 0 c-17 0 -25 6 -25 17 0 14 -2 15 -17 1 -28
-24 -63 -28 -99 -13 -48 20 -74 68 -74 138 0 51 4 61 33 94 28 30 40 36 75 36
27 0 50 -7 62 -18 20 -18 20 -17 20 48 0 65 1 67 25 67 l25 0 0 -185z m560 0
l0 -185 -25 0 c-15 0 -25 6 -25 14 0 10 -8 9 -38 -6 -34 -16 -43 -17 -77 -6
-53 18 -78 55 -82 125 -3 46 0 65 17 91 28 45 80 67 126 52 19 -6 34 -16 34
-21 0 -5 5 -9 11 -9 7 0 10 23 7 65 l-3 65 28 0 27 0 0 -185z m2990 121 l0
-63 39 19 c47 23 83 17 111 -19 17 -22 20 -41 20 -134 l0 -109 -25 0 c-25 0
-25 0 -25 99 0 107 -10 131 -53 131 -51 -1 -67 -36 -67 -144 0 -85 0 -86 -25
-86 l-25 0 0 185 0 185 25 0 c24 0 25 -2 25 -64z m-160 -1 c0 -32 2 -35 30
-35 23 0 30 -4 30 -20 0 -16 -7 -20 -30 -20 l-30 0 0 -83 c0 -86 8 -107 42
-107 24 0 24 -37 -1 -45 -25 -8 -68 10 -80 34 -6 11 -11 60 -11 110 0 88 -1
91 -23 91 -16 0 -23 6 -24 20 -1 15 4 20 23 20 21 0 24 5 24 35 0 31 3 35 25
35 22 0 25 -4 25 -35z m-4047 -47 c50 -26 72 -122 43 -191 -37 -90 -172 -93
-217 -6 -66 131 50 262 174 197z m252 -8 c0 -18 -6 -23 -30 -26 -46 -5 -55
-27 -55 -132 l0 -93 -26 3 -27 3 1 130 1 130 27 3 c21 3 25 0 21 -12 -4 -9 -2
-16 3 -16 6 0 10 4 10 9 0 10 49 31 65 27 6 -2 10 -13 10 -26z m1452 -2 c21
-20 23 -30 23 -135 0 -106 -1 -113 -20 -113 -11 0 -20 6 -20 14 0 11 -8 10
-37 -6 -41 -21 -81 -18 -120 7 -17 12 -23 25 -23 53 0 59 16 72 103 85 85 12
93 22 52 63 -28 28 -58 26 -87 -7 -21 -25 -58 -25 -58 -1 0 22 36 58 65 65 36
10 99 -4 122 -25z m231 -2 c3 -24 1 -27 -16 -22 -11 4 -29 -2 -45 -15 -26 -20
-27 -25 -27 -115 0 -94 0 -94 -25 -94 l-25 0 0 135 0 135 25 0 c17 0 25 -6 25
-17 0 -14 2 -15 18 -1 39 35 66 33 70 -6z m517 3 c21 -18 21 -18 43 3 32 33
88 30 118 -6 22 -25 24 -36 24 -137 l0 -109 -25 0 c-25 0 -25 0 -25 99 0 108
-10 131 -55 131 -41 0 -55 -34 -55 -137 0 -93 0 -93 -25 -93 -25 0 -25 0 -25
97 0 105 -12 133 -56 133 -40 0 -54 -35 -54 -137 0 -93 0 -93 -25 -93 l-25 0
0 135 0 135 25 0 c17 0 25 -6 25 -17 0 -14 2 -15 18 -1 37 32 81 31 117 -3z
m713 5 c20 -13 27 -31 20 -51 -6 -17 -33 -10 -54 13 -26 27 -51 31 -78 11 -35
-26 -16 -50 54 -68 35 -10 70 -25 77 -35 22 -30 16 -78 -12 -104 -48 -45 -172
-22 -183 34 -5 24 33 21 68 -6 39 -28 85 -16 85 22 0 22 -7 27 -59 40 -90 24
-120 77 -76 133 11 14 30 28 43 30 32 7 89 -2 115 -19z m278 -5 c19 -18 22
-18 35 -3 22 27 58 36 96 23 49 -16 63 -55 63 -174 0 -94 0 -95 -24 -95 -24 0
-24 2 -28 101 -2 86 -6 103 -22 115 -27 19 -52 18 -76 -6 -17 -17 -20 -33 -20
-115 0 -95 0 -95 -25 -95 -25 0 -25 0 -25 97 0 76 -4 100 -17 115 -21 24 -48
23 -73 -2 -17 -17 -20 -33 -20 -115 0 -95 0 -95 -25 -95 l-25 0 0 135 0 135
25 0 c17 0 25 -6 25 -17 0 -14 2 -15 18 -1 37 33 81 31 118 -3z m426 10 c23
-12 44 -54 51 -101 l6 -38 -95 0 c-84 0 -94 -2 -94 -18 0 -49 79 -81 114 -47
16 16 66 21 66 6 0 -19 -53 -59 -85 -65 -40 -8 -91 11 -120 44 -16 18 -20 36
-20 95 0 68 2 76 29 104 16 16 38 32 50 34 25 5 75 -2 98 -14z m-4396 -74 c13
-44 24 -88 24 -97 0 -10 5 -18 10 -18 6 0 10 7 10 16 0 9 12 54 26 100 22 74
28 84 48 84 21 0 26 -10 51 -100 16 -55 31 -97 34 -94 3 3 17 47 31 97 24 87
27 92 54 95 20 3 27 0 23 -10 -2 -7 -22 -68 -43 -135 -37 -116 -40 -123 -66
-123 -28 0 -24 -11 -72 159 l-12 44 -30 -102 c-27 -94 -31 -101 -54 -101 -24
0 -28 8 -62 113 -56 173 -54 159 -22 155 25 -3 29 -10 50 -83z m1436 -50 c-3
-134 -3 -135 -27 -135 -23 0 -23 0 -24 135 l-2 135 28 0 28 0 -3 -135z m1149
40 c19 -52 37 -95 41 -95 3 0 21 43 38 95 30 90 33 95 60 95 l28 0 -63 -167
c-39 -103 -72 -175 -86 -185 -20 -17 -69 -24 -81 -12 -14 13 6 43 30 46 17 2
31 13 39 29 12 24 8 38 -33 135 -71 170 -68 154 -35 154 28 0 31 -5 62 -95z
m699 2 c0 -68 4 -99 16 -115 18 -26 50 -28 82 -6 20 14 22 23 22 115 0 99 0
99 25 99 l25 0 0 -135 0 -135 -25 0 c-17 0 -25 6 -25 17 0 14 -2 14 -20 -2
-34 -31 -87 -25 -121 13 -28 31 -29 36 -29 137 l0 105 25 0 c25 0 25 0 25 -93z
m-1960 -142 c0 -33 -2 -35 -35 -35 -33 0 -35 2 -35 35 0 33 2 35 35 35 33 0
35 -2 35 -35z"/>
<path d="M1882 6244 c-43 -30 -15 -114 38 -114 27 0 60 35 60 63 0 28 -34 67
-58 67 -10 0 -28 -7 -40 -16z"/>
<path d="M3355 6163 l69 -73 56 2 55 2 -55 3 c-52 4 -58 7 -125 71 l-70 67 70
-72z"/>
<path d="M3087 6112 l-28 -29 83 -88 83 -87 70 8 c67 8 68 9 30 15 l-40 6 40
2 c40 3 40 3 10 12 -17 5 -68 47 -120 99 -49 49 -92 90 -95 90 -4 0 -19 -13
-33 -28z"/>
<path d="M3543 6025 c0 -27 2 -38 4 -22 2 15 2 37 0 50 -2 12 -4 0 -4 -28z"/>
<path d="M3543 5895 c0 -33 2 -45 4 -27 2 18 2 45 0 60 -2 15 -4 0 -4 -33z"/>
<path d="M3374 5780 c0 -74 1 -105 3 -67 2 37 2 97 0 135 -2 37 -3 6 -3 -68z"/>
<path d="M1624 5730 c-37 -14 -39 -62 -3 -80 29 -16 59 4 59 40 0 34 -25 52
-56 40z"/>
<path d="M3531 5694 c0 -11 3 -14 6 -6 3 7 2 16 -1 19 -3 4 -6 -2 -5 -13z"/>
<path d="M3272 5562 l-83 -77 3 -210 3 -210 3 210 2 210 82 77 c46 42 81 77
78 77 -3 0 -42 -34 -88 -77z"/>
<path d="M3320 5549 l-75 -71 78 68 c69 60 83 74 75 74 -2 0 -37 -32 -78 -71z"/>
<path d="M3425 5455 c-35 -34 -34 -86 1 -114 15 -12 36 -21 48 -20 17 1 15 2
-7 9 -43 13 -57 29 -57 66 0 41 29 74 65 74 14 0 34 -9 45 -20 11 -11 20 -16
20 -11 0 16 -42 41 -68 41 -12 0 -34 -11 -47 -25z"/>
<path d="M3233 5405 c0 -38 2 -53 4 -32 2 20 2 52 0 70 -2 17 -4 1 -4 -38z"/>
<path d="M3541 5398 c-1 -15 -11 -37 -23 -49 l-23 -21 22 11 c23 12 39 50 30
73 -3 7 -6 1 -6 -14z"/>
<path d="M1922 5274 c-40 -28 -21 -104 27 -104 31 0 54 25 54 60 0 20 -7 38
-18 46 -24 18 -36 18 -63 -2z"/>
<path d="M3231 5244 c0 -11 3 -14 6 -6 3 7 2 16 -1 19 -3 4 -6 -2 -5 -13z"/>
<path d="M3233 5140 c0 -30 2 -43 4 -27 2 15 2 39 0 55 -2 15 -4 2 -4 -28z"/>
<path d="M3165 5034 c-22 -21 -26 -31 -21 -57 7 -37 39 -67 70 -67 29 0 66 27
65 48 0 13 -2 12 -9 -5 -18 -44 -93 -42 -110 3 -15 39 -12 51 17 79 15 14 25
25 22 25 -3 0 -18 -12 -34 -26z"/>
<path d="M3251 5045 c9 -11 19 -27 22 -35 5 -13 6 -13 6 1 1 9 -9 24 -21 35
-23 19 -23 19 -7 -1z"/>
<path d="M2388 4890 c-19 -15 -21 -22 -13 -46 8 -23 17 -30 43 -32 26 -3 34 1
43 21 23 50 -30 92 -73 57z"/>
<path d="M6781 5032 c-12 -37 -25 -73 -28 -79 -3 -10 11 -13 55 -13 l59 0 -26
74 c-15 41 -29 77 -32 80 -3 3 -15 -25 -28 -62z"/>
<path d="M5600 4459 l0 -71 54 4 c68 6 86 20 86 69 0 49 -27 69 -92 69 l-48 0
0 -71z"/>
<path d="M6760 4385 l0 -145 50 0 c94 0 140 48 140 147 0 89 -57 143 -150 143
l-40 0 0 -145z"/>
<path d="M7268 4514 c-78 -42 -82 -205 -6 -258 12 -9 42 -16 65 -16 57 0 100
38 114 99 29 130 -71 231 -173 175z"/>
<path d="M5659 3905 c-55 -30 -76 -135 -41 -205 10 -22 32 -42 56 -54 36 -17
43 -18 79 -5 50 18 78 54 84 112 14 121 -83 204 -178 152z"/>
<path d="M3302 2868 c-18 -18 -15 -113 4 -132 38 -38 84 -1 84 67 0 53 -15 77
-48 77 -16 0 -33 -5 -40 -12z"/>
<path d="M3711 2771 c-57 -16 -52 -73 7 -79 37 -4 82 34 82 68 0 16 -6 20 -32
19 -18 -1 -44 -4 -57 -8z"/>
<path d="M6151 2864 c-12 -15 -21 -31 -21 -35 0 -5 32 -9 70 -9 77 0 88 12 50
50 -29 29 -74 26 -99 -6z"/>
<path d="M3621 2154 c-46 -59 -14 -164 50 -164 47 0 69 31 69 95 0 42 -5 60
-20 75 -29 29 -74 26 -99 -6z"/>
<path d="M4171 2154 c-31 -39 -29 -107 4 -139 52 -52 115 -20 122 62 5 45 2
55 -20 77 -35 35 -79 35 -106 0z"/>
<path d="M3032 2173 c-7 -3 -19 -18 -27 -33 -50 -96 39 -197 110 -125 51 50
20 166 -43 164 -15 0 -33 -3 -40 -6z"/>
<path d="M4712 2054 c-27 -19 -28 -50 -2 -64 39 -21 91 8 103 58 5 20 2 22
-37 22 -23 0 -52 -7 -64 -16z"/>
<path d="M6886 2158 c-29 -41 -21 -48 49 -48 57 0 65 2 65 18 0 49 -85 71
-114 30z"/>
</g>
</svg>
