<?xml version="1.0" standalone="no"?>
<!DOCTYPE svg PUBLIC "-//W3C//DTD SVG 20010904//EN"
 "http://www.w3.org/TR/2001/REC-SVG-20010904/DTD/svg10.dtd">
<svg version="1.0" xmlns="http://www.w3.org/2000/svg"
 width="1024.000000pt" height="1024.000000pt" viewBox="0 0 1024.000000 1024.000000"
 preserveAspectRatio="xMidYMid meet">

<g transform="translate(0.000000,1024.000000) scale(0.100000,-0.100000)"
fill="#000000" stroke="none">
<path d="M4960 8724 c-19 -2 -78 -9 -130 -15 -503 -57 -992 -289 -1359 -644
-396 -383 -629 -856 -703 -1425 -19 -154 -14 -460 11 -626 119 -786 631 -1460
1367 -1797 546 -250 1172 -282 1734 -88 639 219 1159 711 1425 1346 72 170
120 351 157 580 20 125 17 524 -5 664 -80 511 -283 919 -637 1285 -377 388
-840 626 -1370 701 -110 16 -417 28 -490 19z m526 -229 c699 -118 1290 -562
1591 -1193 141 -295 206 -593 207 -947 1 -262 -41 -494 -129 -730 -41 -109
-105 -248 -111 -242 -2 2 9 30 25 63 73 152 131 331 165 509 24 125 26 154 16
160 -6 4 -10 -11 -10 -37 0 -61 -82 -383 -103 -403 -7 -7 -8 -3 -3 10 22 60
66 234 82 320 29 153 27 565 -3 730 -68 376 -230 713 -479 995 -107 122 -211
225 -195 193 6 -12 16 -25 21 -28 6 -4 7 -11 4 -17 -4 -7 -2 -8 4 -4 7 4 10 2
6 -7 -3 -8 2 -20 11 -27 8 -7 15 -16 15 -21 0 -5 -19 12 -41 36 -23 25 -49 45
-58 45 -13 0 -13 2 -2 9 11 7 11 10 0 17 -7 4 -14 3 -17 -4 -2 -7 -19 -12 -38
-12 -25 0 -34 4 -34 17 0 13 3 14 12 5 19 -19 33 -14 15 6 -10 10 -14 21 -11
25 3 3 3 11 -1 17 -6 9 -9 9 -15 1 -5 -9 -10 -8 -19 2 -9 11 -8 17 1 25 9 7
26 1 60 -21 38 -25 44 -33 30 -38 -10 -4 -18 -1 -20 7 -4 14 -22 20 -22 7 1
-16 28 -44 32 -33 2 6 14 12 27 13 21 1 19 5 -21 38 -23 21 -44 36 -46 34 -2
-1 -19 13 -39 31 -20 19 -39 32 -42 28 -3 -3 5 -13 17 -23 21 -16 22 -19 9
-44 -12 -22 -16 -25 -21 -12 -3 9 -11 13 -17 9 -8 -4 -7 -9 2 -16 11 -8 10 -9
-3 -4 -13 4 -18 0 -18 -15 0 -13 -5 -18 -12 -14 -7 4 -5 0 4 -7 20 -17 8 -41
-16 -32 -10 4 -15 13 -11 22 3 8 0 20 -7 25 -9 6 -8 7 5 3 11 -4 20 0 24 12 3
9 12 24 20 33 12 15 11 17 -11 23 -14 3 -24 12 -22 19 1 6 1 9 -1 4 -3 -4 -9
-5 -14 -1 -17 10 -51 -7 -45 -23 3 -8 4 -19 1 -23 -7 -11 -35 -1 -35 12 0 5 5
6 10 3 6 -3 10 1 10 9 0 18 -2 19 -24 10 -9 -3 -14 -10 -11 -14 3 -4 -2 -11
-10 -14 -12 -4 -13 -2 -6 13 6 10 7 21 4 25 -7 6 12 10 37 6 11 -1 12 1 4 10
-8 8 -21 8 -45 2 -19 -6 -29 -11 -22 -11 14 -1 10 -34 -4 -38 -15 -5 -26 14
-13 22 7 4 6 13 -1 27 -8 15 -8 19 0 14 6 -4 11 -3 11 3 0 5 -5 13 -10 16 -6
4 -8 10 -6 13 2 4 1 23 -4 42 -5 22 -8 -64 -9 -220 l-1 -256 60 -59 60 -59 48
47 c39 38 50 45 61 35 7 -7 4 3 -8 22 -14 24 -21 52 -21 87 0 44 5 58 30 87
76 86 196 65 236 -39 22 -60 8 -110 -43 -155 -34 -30 -40 -32 -100 -28 l-65 4
-59 -60 -59 -61 0 -85 c0 -133 -9 -190 -30 -190 -27 0 -30 20 -29 163 l1 130
-71 71 -71 71 0 279 c0 154 -2 277 -5 275 -2 -3 -5 -35 -7 -72 -2 -56 -5 -66
-19 -62 -10 3 -16 -1 -16 -10 0 -9 6 -14 14 -11 7 3 13 -1 13 -10 0 -11 -4
-12 -19 -4 -25 13 -75 -4 -68 -23 3 -8 -4 -13 -17 -14 -11 0 -16 1 -9 4 10 3
10 9 0 24 -17 28 -27 23 -22 -12 2 -17 1 -28 -2 -25 -10 9 -13 59 -5 71 4 6
-1 2 -10 -8 -10 -11 -18 -14 -18 -7 0 7 -7 10 -16 6 -8 -3 -13 -2 -10 3 3 5 0
11 -8 14 -11 4 -12 -2 -6 -29 l8 -34 -26 20 c-31 25 -41 18 -16 -12 10 -13 -5
-1 -33 26 -28 27 -50 54 -49 60 2 6 1 8 -1 4 -3 -4 -18 5 -34 20 -26 24 -28
30 -19 60 33 117 -86 233 -194 188 -48 -20 -46 -28 2 -9 53 20 110 5 151 -42
26 -30 31 -44 30 -83 0 -26 -4 -56 -8 -66 -6 -16 12 -40 92 -123 154 -159 147
-145 147 -294 0 -115 2 -128 18 -133 87 -28 92 -170 7 -210 -43 -21 -63 -20
-103 4 -73 44 -80 135 -16 188 l36 30 -7 119 -7 120 -113 114 -113 114 -52 -3
c-63 -5 -102 11 -130 51 l-22 32 -229 -3 c-218 -3 -229 -4 -229 -22 0 -10 -5
-22 -11 -25 -6 -4 -8 -14 -4 -23 3 -9 3 -13 -1 -10 -4 4 -18 -2 -32 -12 -31
-25 -93 -26 -132 -4 -34 20 -60 63 -60 99 0 53 51 114 97 116 13 0 14 2 4 6
-19 8 -79 -26 -86 -47 -7 -21 -39 -32 -53 -18 -7 7 -16 6 -29 -2 -16 -10 -16
-11 4 -7 13 3 26 1 29 -4 3 -5 10 -7 15 -4 5 4 9 -1 9 -10 0 -9 -4 -13 -10
-10 -5 3 -10 1 -10 -4 0 -6 5 -11 10 -11 6 0 9 -12 9 -27 -2 -24 -2 -25 -6 -5
-3 14 -12 22 -24 22 -10 0 -19 6 -19 14 0 8 -5 18 -11 22 -7 4 -9 0 -5 -14 7
-21 9 -21 -56 -7 -16 3 -28 10 -28 16 0 7 7 8 18 4 30 -12 52 -14 52 -5 0 5
-17 12 -37 16 -47 8 -55 13 -47 26 4 7 9 6 14 -1 5 -9 10 -7 20 4 11 13 10 15
-4 9 -9 -4 -16 -1 -16 6 0 7 -9 3 -20 -10 -23 -27 -25 -34 -7 -25 6 4 4 0 -6
-8 -10 -9 -18 -18 -17 -21 1 -4 -1 -12 -3 -19 -3 -6 -6 19 -6 57 -1 38 -3 67
-5 65 -2 -2 -7 -56 -10 -119 l-7 -116 31 -29 c61 -58 28 -150 -57 -162 -38 -5
-45 -2 -73 27 -41 44 -41 91 0 132 l30 30 0 130 c0 72 -3 128 -7 125 -3 -4 -6
-29 -6 -57 1 -27 -3 -50 -8 -50 -5 0 -7 14 -4 32 5 27 4 30 -10 18 -8 -7 -18
-10 -22 -6 -3 3 -1 6 5 6 7 0 12 5 12 11 0 8 -5 8 -15 -1 -8 -7 -15 -19 -15
-27 0 -8 -5 -11 -11 -8 -6 4 -8 14 -5 24 5 14 4 14 -7 -1 -8 -10 -17 -15 -20
-11 -4 3 -2 12 4 20 15 17 9 16 -29 -3 l-32 -15 0 -203 0 -203 84 -81 c69 -66
88 -80 107 -75 13 3 76 59 139 124 l115 119 142 2 c128 1 143 3 148 19 10 31
55 59 93 59 86 0 125 -108 63 -171 -19 -18 -40 -29 -58 -29 -29 0 -72 23 -86
47 -6 10 -42 13 -141 13 l-134 0 -105 -113 c-90 -97 -106 -118 -105 -145 1
-42 -26 -72 -67 -72 -45 0 -68 21 -68 61 1 30 -11 46 -94 130 l-94 96 1 191
c0 106 -2 192 -5 192 -8 0 -100 -53 -180 -105 -179 -115 -410 -327 -528 -484
-155 -207 -281 -470 -351 -734 -29 -109 -55 -250 -57 -311 -2 -33 -3 -35 -6
-11 -5 34 12 165 32 245 8 30 16 66 19 80 4 23 50 188 61 218 2 6 2 12 0 12
-17 0 -96 -276 -120 -420 -9 -52 -20 -147 -24 -210 -8 -107 -8 -110 -10 -38
-4 228 80 571 205 833 272 573 800 1007 1404 1154 117 28 292 56 405 65 121 9
367 -5 511 -29z m-1186 -260 c-7 -8 -18 -15 -24 -15 -6 0 -2 7 8 15 25 19 32
19 16 0z m50 -30 c0 -8 -2 -15 -4 -15 -2 0 -6 7 -10 15 -3 8 -1 15 4 15 6 0
10 -7 10 -15z m235 -35 c3 -6 -1 -7 -9 -4 -18 7 -21 14 -7 14 6 0 13 -4 16
-10z m52 4 c-3 -3 -12 -4 -19 -1 -8 3 -5 6 6 6 11 1 17 -2 13 -5z m742 -16 c9
-13 15 -26 13 -30 -1 -5 3 -7 10 -5 7 1 13 -5 13 -13 2 -28 -7 -32 -22 -10
-12 17 -17 19 -24 9 -7 -11 -9 -10 -9 4 0 9 -2 17 -4 17 -2 0 -11 2 -19 5 -10
5 -13 -2 -12 -25 2 -34 -11 -48 -28 -31 -9 9 -8 14 3 21 8 5 11 10 5 10 -33 0
-45 -39 -16 -51 9 -3 11 -8 4 -12 -5 -3 -21 5 -34 20 -13 14 -18 23 -11 19 7
-4 12 -1 12 8 0 8 11 24 25 34 15 12 21 23 15 27 -5 3 -10 1 -10 -5 0 -6 -7
-10 -16 -8 -10 2 -18 -5 -20 -15 -3 -24 -14 -35 -14 -15 0 9 -7 19 -16 22 -9
3 -12 11 -8 18 5 10 3 9 -7 0 -12 -11 -11 -15 5 -28 11 -8 15 -14 9 -14 -7 0
-15 5 -18 10 -4 6 -11 8 -16 4 -6 -3 -2 -12 8 -19 10 -7 15 -16 12 -19 -3 -4
-17 2 -30 12 -13 11 -30 17 -38 14 -8 -3 -11 0 -7 7 5 7 -3 9 -26 6 -18 -3
-28 -3 -21 1 7 3 9 12 6 21 -5 12 -1 14 15 8 12 -3 22 -3 22 2 0 5 -11 10 -24
11 -16 1 -25 -5 -29 -18 -6 -24 -23 -26 -31 -4 -5 12 -2 15 9 10 9 -3 13 -2
10 4 -12 19 -37 11 -30 -9 6 -21 -10 -38 -20 -21 -10 17 -23 11 -31 -12 l-7
-23 -9 24 c-6 17 -5 27 4 33 7 4 11 8 8 9 -3 0 -13 2 -23 4 -13 2 -17 -1 -13
-11 3 -8 0 -14 -7 -14 -7 0 -13 9 -14 19 -2 19 7 20 219 21 218 0 221 0 237
-22z m-1036 -8 c3 -11 1 -18 -4 -14 -5 3 -9 12 -9 20 0 20 7 17 13 -6z m617
-46 c0 -2 -7 -4 -15 -4 -8 0 -15 4 -15 10 0 5 7 7 15 4 8 -4 15 -8 15 -10z
m84 1 c-4 -8 -11 -15 -16 -15 -6 0 -5 6 2 15 7 8 14 15 16 15 2 0 1 -7 -2 -15z
m326 -10 c4 3 11 -2 14 -11 3 -8 2 -12 -3 -9 -5 3 -12 1 -16 -5 -11 -18 -27
-11 -22 10 3 11 1 20 -5 20 -5 0 -6 5 -2 11 5 8 10 6 16 -5 5 -9 13 -14 18
-11z m-256 -18 c3 -12 0 -26 -6 -32 -8 -7 -9 -6 -4 2 4 7 -1 24 -10 38 -14 22
-14 24 -1 19 8 -3 18 -15 21 -27z m326 23 c0 -5 -2 -10 -4 -10 -3 0 -8 5 -11
10 -3 6 -1 10 4 10 6 0 11 -4 11 -10z m-277 -7 c3 -5 -6 -9 -20 -10 -19 -1
-22 1 -12 8 17 11 26 11 32 2z m412 -3 c3 -6 -1 -7 -9 -4 -18 7 -21 14 -7 14
6 0 13 -4 16 -10z m-62 -7 c-7 -2 -19 -2 -25 0 -7 3 -2 5 12 5 14 0 19 -2 13
-5z m55 -28 c-3 -3 -9 2 -12 12 -6 14 -5 15 5 6 7 -7 10 -15 7 -18z m47 -5
c10 -11 16 -20 13 -20 -3 0 -13 9 -23 20 -10 11 -16 20 -13 20 3 0 13 -9 23
-20z m-175 7 c0 -2 -10 -12 -21 -23 -22 -19 -22 -19 -10 4 10 18 31 31 31 19z
m-169 -24 c13 -16 12 -17 -3 -4 -17 13 -22 21 -14 21 2 0 10 -8 17 -17z m57
10 c-10 -2 -18 -9 -18 -15 0 -6 -3 -9 -6 -5 -10 10 6 27 24 26 15 -1 15 -2 0
-6z m533 -25 c9 -16 8 -19 -3 -16 -7 3 -13 9 -13 14 0 5 -4 15 -9 23 -6 10 -5
12 2 7 7 -4 17 -16 23 -28z m429 12 c11 -11 15 -20 9 -20 -6 0 -9 -6 -6 -12 3
-8 -5 -14 -19 -14 l-24 -2 23 19 c21 17 15 25 -15 20 -10 -1 -10 13 -1 22 9
10 11 9 33 -13z m-295 0 c3 -5 1 -10 -4 -10 -6 0 -11 5 -11 10 0 6 2 10 4 10
3 0 8 -4 11 -10z m0 -30 c3 -6 -1 -7 -9 -4 -18 7 -21 14 -7 14 6 0 13 -4 16
-10z m175 -10 c-18 -12 -40 -13 -40 -2 0 4 12 9 28 10 21 1 23 0 12 -8z m-742
-44 c2 -10 -1 -23 -7 -29 -16 -16 -34 6 -26 33 8 24 28 22 33 -4z m-1585 -50
c69 -29 104 -101 84 -175 -8 -32 -6 -35 90 -134 54 -56 115 -109 135 -118 43
-20 68 -63 68 -115 0 -53 -53 -104 -108 -104 -100 0 -151 122 -82 195 l20 21
-88 86 -87 86 -52 -5 c-101 -10 -163 40 -163 132 0 43 5 59 27 86 27 32 74 58
106 59 10 0 32 -6 50 -14z m2500 -26 c-10 -11 -19 -20 -21 -20 -1 0 2 9 8 20
6 11 15 20 20 20 6 0 2 -9 -7 -20z m-35 -50 c-7 -10 -14 -18 -15 -16 -6 6 9
36 18 36 5 0 4 -9 -3 -20z m-763 -10 c-3 -5 -14 -10 -23 -9 -14 0 -13 2 3 9
27 11 27 11 20 0z m1062 -62 c-3 -7 -5 -2 -5 12 0 14 2 19 5 13 2 -7 2 -19 0
-25z m-1322 -253 c78 -38 139 -101 178 -183 28 -59 32 -77 32 -152 0 -76 -3
-93 -32 -151 -40 -81 -102 -140 -191 -182 -56 -26 -77 -31 -141 -30 -166 1
-298 94 -353 250 -41 118 -9 266 78 363 80 88 161 122 285 117 70 -2 96 -8
144 -32z m1431 -148 c-46 -190 -133 -383 -258 -570 -104 -155 -230 -288 -513
-539 -229 -204 -325 -331 -398 -528 -54 -145 -70 -248 -71 -445 -1 -93 3 -208
7 -255 11 -112 1 -99 -14 18 -6 51 -16 92 -20 92 -5 0 -6 -12 -3 -27 6 -24 5
-26 -7 -16 -18 14 -48 11 -58 -6 -4 -6 -15 -9 -25 -5 -15 6 -17 3 -11 -16 6
-20 5 -21 -8 -9 -8 8 -14 16 -14 19 3 8 -12 10 -28 4 -8 -3 -13 -10 -10 -14 3
-4 -2 -14 -11 -21 -13 -11 -15 -9 -9 17 5 25 4 26 -4 7 -10 -23 -61 -34 -61
-14 0 22 13 41 29 42 10 0 11 3 4 6 -7 2 -23 -3 -35 -11 -28 -20 -44 -21 -28
-1 9 10 9 15 1 15 -6 0 -11 -4 -11 -10 0 -5 -7 -10 -16 -10 -9 0 -12 5 -8 12
4 6 3 8 -4 4 -5 -3 -13 0 -16 6 -4 7 -4 3 -2 -10 2 -12 1 -20 -3 -18 -4 3 -15
-3 -23 -13 -12 -14 -13 -22 -5 -30 8 -8 8 -14 -2 -23 -10 -11 -11 -10 -6 5 4
10 2 17 -4 17 -7 0 -11 6 -10 13 3 24 -1 38 -10 33 -5 -4 -8 -18 -6 -32 1 -17
-1 -22 -8 -15 -5 5 -16 7 -25 4 -10 -4 -13 -2 -8 5 7 11 -7 15 -56 15 -10 0
-15 4 -12 8 3 5 1 9 -4 9 -5 0 -12 -10 -15 -22 -4 -12 -9 -20 -12 -16 -10 9
17 58 28 51 6 -4 8 0 4 10 -4 10 9 52 29 98 19 45 33 84 31 86 -4 4 -89 -188
-216 -487 -123 -291 -147 -339 -114 -225 11 38 -5 9 -52 -98 -26 -59 -50 -106
-52 -103 -2 2 4 21 15 43 44 86 118 315 146 449 57 270 49 591 -20 801 -77
235 -174 357 -567 711 -81 74 -178 168 -215 210 -154 176 -290 398 -367 601
-25 67 -77 252 -72 257 1 2 29 -29 62 -68 76 -89 241 -248 348 -334 295 -237
634 -387 997 -440 137 -20 373 -15 513 11 488 89 931 363 1270 787 34 42 63
75 65 73 2 -2 -8 -50 -22 -108z m273 -183 c43 -36 43 -88 1 -129 l-30 -29 0
-160 0 -160 -162 -165 c-90 -91 -253 -257 -363 -369 -110 -112 -199 -209 -197
-217 5 -28 -27 -85 -60 -105 -39 -24 -78 -26 -118 -5 -43 22 -60 53 -60 108 0
42 5 54 34 83 28 28 42 34 75 34 44 0 101 -23 101 -41 0 -6 -12 -1 -26 10 -32
25 -94 29 -94 6 0 -9 9 -15 24 -15 34 0 86 -46 86 -77 0 -32 -51 -83 -83 -83
-30 0 -77 51 -77 83 0 11 11 32 25 47 17 18 22 29 15 40 -8 12 -15 9 -40 -18
-39 -44 -41 -97 -4 -141 26 -32 76 -48 112 -37 36 12 72 57 72 90 0 27 25 57
180 216 124 128 175 187 167 193 -8 6 -7 7 4 4 19 -6 67 40 63 61 -1 6 -2 18
-3 25 -1 7 -7 4 -16 -7 -12 -16 -12 -22 -2 -29 7 -5 4 -6 -10 -2 -14 4 -23 2
-23 -4 0 -6 5 -11 11 -11 5 0 7 -5 3 -11 -4 -8 -9 -7 -15 2 -7 10 -54 -33
-184 -166 -96 -99 -175 -177 -175 -172 0 7 74 84 532 553 l148 151 0 146 0
145 -31 32 c-27 27 -31 36 -26 68 12 76 88 105 146 56z m-3629 -101 c56 -33
65 -90 20 -135 -30 -29 -30 -30 -30 -141 l1 -112 309 -315 309 -315 50 3 c77
6 131 -43 131 -118 0 -70 -49 -120 -118 -120 -49 0 -87 21 -108 61 -16 32 -18
97 -4 119 7 12 -17 42 -113 136 -67 66 -211 211 -321 321 l-198 200 1 131 c2
123 1 131 -19 142 -50 27 -44 116 8 145 35 19 48 18 82 -2z m-363 -570 c-3
-10 -5 -4 -5 12 0 17 2 24 5 18 2 -7 2 -21 0 -30z m462 -324 c15 9 32 9 61 1
55 -15 83 -58 77 -119 -6 -54 -38 -87 -92 -96 -39 -6 -39 -5 10 12 53 19 75
47 75 95 0 73 -64 118 -135 95 -17 -6 -45 18 -150 126 l-130 132 131 -129
c120 -116 133 -127 153 -117z m3589 225 c27 -18 52 -65 52 -95 0 -33 -37 -85
-70 -99 -17 -7 -48 -10 -69 -7 -39 5 -40 4 -170 -128 -73 -73 -131 -129 -129
-124 2 4 56 62 121 127 64 66 117 125 117 132 0 6 5 8 10 5 16 -10 11 7 -6 19
-13 10 -38 -12 -155 -130 -77 -78 -139 -138 -137 -133 2 5 63 72 137 149 117
124 132 144 127 166 -9 36 10 90 41 114 31 24 99 27 131 4z m-3648 -285 c0 -7
-128 126 -195 202 -22 25 13 -9 77 -75 65 -67 118 -124 118 -127z m-433 59
c-2 -18 -4 -6 -4 27 0 33 2 48 4 33 2 -15 2 -42 0 -60z m30 10 c-3 -7 -5 -2
-5 12 0 14 2 19 5 13 2 -7 2 -19 0 -25z m534 -51 c31 -24 42 -56 28 -88 -21
-52 -76 -65 -116 -27 -13 12 -23 29 -22 37 0 14 1 14 6 1 25 -67 107 -67 128
1 9 26 -18 67 -49 75 -30 7 -64 -10 -76 -39 -6 -16 -9 -18 -9 -5 -1 21 45 58
73 58 11 0 28 -6 37 -13z m-554 -49 c-2 -13 -4 -5 -4 17 -1 22 1 32 4 23 2
-10 2 -28 0 -40z m424 -59 c6 -15 21 -32 35 -39 13 -8 22 -15 20 -17 -2 -3
-14 0 -25 6 -27 15 -51 63 -50 98 2 27 2 27 6 3 2 -14 9 -37 14 -51z m-414
-11 c-3 -7 -5 -2 -5 12 0 14 2 19 5 13 2 -7 2 -19 0 -25z m10 -55 c-3 -10 -5
-4 -5 12 0 17 2 24 5 18 2 -7 2 -21 0 -30z m10 -55 c-3 -8 -6 -5 -6 6 -1 11 2
17 5 13 3 -3 4 -12 1 -19z m10 -40 c-3 -8 -6 -5 -6 6 -1 11 2 17 5 13 3 -3 4
-12 1 -19z m40 -30 c-3 -8 -6 -5 -6 6 -1 11 2 17 5 13 3 -3 4 -12 1 -19z m-30
-10 c-3 -8 -6 -5 -6 6 -1 11 2 17 5 13 3 -3 4 -12 1 -19z m614 -97 c35 -35 39
-44 39 -90 0 -92 -45 -141 -130 -141 -56 0 -96 23 -120 70 -24 48 -25 81 -3
127 22 48 66 73 127 73 43 0 53 -4 87 -39z m804 -11 c10 -11 16 -20 13 -20 -3
0 -13 9 -23 20 -10 11 -16 20 -13 20 3 0 13 -9 23 -20z m2394 -23 c-2 -1 -15
-11 -29 -22 l-25 -20 19 23 c11 12 24 22 29 22 6 0 8 -1 6 -3z m91 -17 c11
-11 20 -28 19 -37 0 -14 -2 -14 -9 3 -5 12 -19 29 -32 38 -12 9 -17 16 -10 16
6 0 21 -9 32 -20z m180 -75 c-12 -31 -24 -54 -26 -52 -2 2 6 29 19 60 12 30
23 54 26 52 2 -2 -7 -29 -19 -60z m-2650 11 c0 -2 -8 -10 -17 -17 -16 -13 -17
-12 -4 4 13 16 21 21 21 13z m2465 -66 c-10 -11 -22 -20 -28 -20 -5 0 1 9 14
20 31 25 37 25 14 0z m-90 -18 c-3 -3 -11 0 -18 7 -9 10 -8 11 6 5 10 -3 15
-9 12 -12z m216 -66 c-17 -36 -33 -66 -36 -66 -6 0 10 39 40 102 31 64 27 35
-4 -36z m-174 58 c-3 -3 -12 -4 -19 -1 -8 3 -5 6 6 6 11 1 17 -2 13 -5z
m-2667 -17 c0 -2 -10 -12 -22 -23 l-23 -19 19 23 c18 21 26 27 26 19z m-1016
-103 c3 -8 2 -12 -4 -9 -6 3 -10 10 -10 16 0 14 7 11 14 -7z m3294 -3 c47 -24
72 -67 72 -123 0 -80 -57 -138 -137 -138 -81 0 -141 71 -130 154 7 49 33 86
78 108 44 23 71 23 117 -1z m512 -31 c-6 -11 -13 -20 -16 -20 -2 0 0 9 6 20 6
11 13 20 16 20 2 0 0 -9 -6 -20z m19 -32 c-26 -52 -148 -236 -161 -244 -5 -3
22 41 60 98 38 56 79 122 91 146 12 23 24 42 26 42 3 0 -4 -19 -16 -42z
m-3739 -18 c6 -11 8 -20 6 -20 -3 0 -10 9 -16 20 -6 11 -8 20 -6 20 3 0 10 -9
16 -20z m3689 -2 c-18 -34 -109 -168 -114 -168 -2 0 24 43 58 95 60 92 80 119
56 73z m-3638 -145 c13 -16 12 -17 -3 -4 -17 13 -22 21 -14 21 2 0 10 -8 17
-17z m50 -10 c13 -16 12 -17 -3 -4 -10 7 -18 15 -18 17 0 8 8 3 21 -13z m30
-40 c13 -16 12 -17 -3 -4 -10 7 -18 15 -18 17 0 8 8 3 21 -13z m3439 13 c0 -2
-8 -10 -17 -17 -16 -13 -17 -12 -4 4 13 16 21 21 21 13z m-3409 -53 c13 -16
12 -17 -3 -4 -17 13 -22 21 -14 21 2 0 10 -8 17 -17z m3379 13 c0 -2 -8 -10
-17 -17 -16 -13 -17 -12 -4 4 13 16 21 21 21 13z m-3419 -23 c13 -16 12 -17
-3 -4 -17 13 -22 21 -14 21 2 0 10 -8 17 -17z m2029 7 c0 -5 -5 -12 -10 -15
-6 -4 -8 -10 -6 -14 3 -4 -4 -7 -14 -8 -11 -1 -22 2 -25 8 -4 5 2 6 11 2 13
-5 16 -2 12 13 -4 14 0 20 13 21 11 1 19 -2 19 -7z m1420 -4 c0 -2 -8 -10 -17
-17 -16 -13 -17 -12 -4 4 13 16 21 21 21 13z m-1693 -21 c0 -8 -4 -12 -9 -9
-4 3 -8 -1 -9 -8 0 -9 -2 -10 -5 -1 -3 7 -12 9 -20 6 -8 -3 -14 0 -14 7 0 6 4
9 9 5 5 -3 12 -1 16 5 9 15 32 12 32 -5z m33 -5 c0 -5 -5 -10 -11 -10 -5 0 -7
5 -4 10 3 6 8 10 11 10 2 0 4 -4 4 -10z m1590 -3 c0 -2 -12 -14 -27 -28 l-28
-24 24 28 c23 25 31 32 31 24z m-3289 -24 c13 -16 12 -17 -3 -4 -10 7 -18 15
-18 17 0 8 8 3 21 -13z m3289 -33 c-23 -27 -47 -53 -53 -57 -7 -4 10 19 37 50
27 31 51 57 53 57 3 0 -14 -22 -37 -50z m-3270 -45 c19 -19 32 -35 29 -35 -3
0 -20 16 -39 35 -19 19 -32 35 -29 35 3 0 20 -16 39 -35z m3210 32 c0 -2 -19
-21 -42 -42 l-43 -40 40 43 c36 39 45 47 45 39z m-1849 -34 c-12 -20 -14 -14
-5 12 4 9 9 14 11 11 3 -2 0 -13 -6 -23z m626 -45 c-3 -7 -5 -2 -5 12 0 14 2
19 5 13 2 -7 2 -19 0 -25z m-1886 -5 c13 -16 12 -17 -3 -4 -17 13 -22 21 -14
21 2 0 10 -8 17 -17z m3079 -6 c0 -2 -17 -19 -37 -38 l-38 -34 34 38 c33 34
41 42 41 34z m-1183 -39 c-3 -7 -5 -2 -5 12 0 14 2 19 5 13 2 -7 2 -19 0 -25z
m10 -40 c-3 -8 -6 -5 -6 6 -1 11 2 17 5 13 3 -3 4 -12 1 -19z m-1837 -33 c13
-14 21 -25 18 -25 -2 0 -15 11 -28 25 -13 14 -21 25 -18 25 2 0 15 -11 28 -25z
m2880 -8 c0 -2 -10 -12 -22 -23 l-23 -19 19 23 c18 21 26 27 26 19z m-70 -11
c0 -2 -8 -10 -17 -17 -16 -13 -17 -12 -4 4 13 16 21 21 21 13z m-2739 -43 c13
-16 12 -17 -3 -4 -17 13 -22 21 -14 21 2 0 10 -8 17 -17z m2749 3 c0 -2 -8
-10 -17 -17 -16 -13 -17 -12 -4 4 13 16 21 21 21 13z m-2240 -276 c8 -5 11
-10 5 -10 -5 0 -17 5 -25 10 -8 5 -10 10 -5 10 6 0 17 -5 25 -10z m295 -100
c-3 -5 -16 -10 -28 -9 -20 1 -20 2 3 9 14 4 26 8 28 9 2 1 0 -3 -3 -9z m82
-66 c-3 -3 -12 -4 -19 -1 -8 3 -5 6 6 6 11 1 17 -2 13 -5z m90 -20 c-3 -3 -12
-4 -19 -1 -8 3 -5 6 6 6 11 1 17 -2 13 -5z m66 -11 c-7 -2 -21 -2 -30 0 -10 3
-4 5 12 5 17 0 24 -2 18 -5z m694 1 c-3 -3 -12 -4 -19 -1 -8 3 -5 6 6 6 11 1
17 -2 13 -5z m-624 -11 c-7 -2 -21 -2 -30 0 -10 3 -4 5 12 5 17 0 24 -2 18 -5z
m560 0 c-7 -2 -19 -2 -25 0 -7 3 -2 5 12 5 14 0 19 -2 13 -5z m-475 -10 c-10
-2 -28 -2 -40 0 -13 2 -5 4 17 4 22 1 32 -1 23 -4z m375 0 c-13 -2 -35 -2 -50
0 -16 2 -5 4 22 4 28 0 40 -2 28 -4z m-200 -10 c-7 -2 -21 -2 -30 0 -10 3 -4
5 12 5 17 0 24 -2 18 -5z m64 1 c-3 -3 -12 -4 -19 -1 -8 3 -5 6 6 6 11 1 17
-2 13 -5z"/>
<path d="M5381 8330 c-12 -17 -21 -35 -19 -40 2 -5 13 8 26 30 27 48 24 52 -7
10z"/>
<path d="M4315 8320 c3 -5 8 -10 11 -10 2 0 4 5 4 10 0 6 -5 10 -11 10 -5 0
-7 -4 -4 -10z"/>
<path d="M4280 8310 c-9 -6 -10 -10 -3 -10 6 0 15 5 18 10 8 12 4 12 -15 0z"/>
<path d="M4835 8304 c16 -8 37 -22 46 -30 12 -11 52 -14 184 -14 93 0 166 3
162 6 -3 3 -78 6 -167 5 -159 -1 -163 0 -192 24 -16 14 -37 25 -46 25 -10 0
-5 -6 13 -16z"/>
<path d="M4585 8285 c-16 -7 -30 -17 -30 -22 0 -4 -4 -7 -10 -5 -5 2 -5 -2 1
-8 9 -9 18 -5 38 15 23 23 29 25 44 13 15 -12 16 -11 3 5 -7 9 -14 17 -15 16
0 0 -14 -7 -31 -14z"/>
<path d="M5450 8280 c-18 -34 -8 -73 23 -90 24 -13 30 -13 55 0 46 26 38 111
-11 109 l-22 0 23 -9 c27 -11 36 -32 28 -64 -12 -47 -80 -39 -92 11 -5 20 -2
31 16 45 17 13 18 18 6 18 -8 0 -20 -9 -26 -20z"/>
<path d="M5273 8263 c15 -2 37 -2 50 0 12 2 0 4 -28 4 -27 0 -38 -2 -22 -4z"/>
<path d="M4747 8232 c-22 -24 -21 -55 1 -75 38 -35 102 -9 102 40 0 47 -71 71
-103 35z m78 -12 c10 -11 15 -20 10 -20 -4 0 -13 7 -20 17 -12 16 -52 12 -41
-5 3 -5 -1 -9 -9 -9 -20 0 -19 14 3 26 25 15 37 13 57 -9z m-15 -21 c0 -6 -4
-7 -10 -4 -5 3 -10 11 -10 16 0 6 5 7 10 4 6 -3 10 -11 10 -16z m-34 -21 c-10
-6 -22 -6 -26 -2 -5 5 3 10 18 11 22 1 24 0 8 -9z m49 -8 c-10 -11 -20 -18
-23 -15 -7 6 18 35 31 35 5 0 2 -9 -8 -20z"/>
<path d="M4621 8214 c0 -11 3 -14 6 -6 3 7 2 16 -1 19 -3 4 -6 -2 -5 -13z"/>
<path d="M6110 8219 c0 -5 5 -7 10 -4 6 3 10 8 10 11 0 2 -4 4 -10 4 -5 0 -10
-5 -10 -11z"/>
<path d="M5706 8171 c-10 -10 -13 -22 -8 -25 5 -3 14 6 20 19 14 30 11 31 -12
6z"/>
<path d="M5770 8140 c8 -5 20 -10 25 -10 6 0 3 5 -5 10 -8 5 -19 10 -25 10 -5
0 -3 -5 5 -10z"/>
<path d="M5837 8133 c-14 -14 -6 -41 14 -46 12 -3 18 -3 15 0 -3 4 1 18 10 32
l15 26 -20 -22 c-10 -13 -22 -23 -25 -23 -9 0 -2 24 9 32 6 5 6 8 -1 8 -6 0
-14 -3 -17 -7z"/>
<path d="M5744 8113 c20 -24 9 -32 -12 -11 -7 7 -12 8 -12 2 0 -6 9 -19 19
-28 15 -14 24 -15 40 -6 22 11 29 40 10 40 -6 0 -9 -6 -6 -14 3 -8 -1 -17 -10
-20 -10 -4 -13 -2 -10 8 3 8 -4 22 -16 33 l-22 18 19 -22z"/>
<path d="M6285 8120 c3 -5 11 -10 16 -10 6 0 7 5 4 10 -3 6 -11 10 -16 10 -6
0 -7 -4 -4 -10z"/>
<path d="M5986 8108 c3 -5 10 -6 15 -3 13 9 11 12 -6 12 -8 0 -12 -4 -9 -9z"/>
<path d="M6323 8085 c0 -8 4 -12 9 -9 5 3 6 10 3 15 -9 13 -12 11 -12 -6z"/>
<path d="M5941 8065 c0 -11 3 -14 6 -7 2 6 8 10 13 7 4 -3 10 1 13 8 3 8 -3
13 -14 13 -13 0 -19 -7 -18 -21z"/>
<path d="M6235 8080 c-3 -5 -1 -10 4 -10 6 0 11 5 11 10 0 6 -2 10 -4 10 -3 0
-8 -4 -11 -10z"/>
<path d="M6320 8054 c0 -8 32 -33 43 -34 5 0 5 4 2 10 -8 13 -45 33 -45 24z"/>
<path d="M6397 7792 c-23 -25 -21 -58 3 -82 53 -53 126 13 90 81 -14 25 -71
26 -93 1z m77 -5 c11 -8 16 -21 13 -33 -4 -17 -5 -17 -6 3 -1 26 -39 42 -52
22 -7 -11 -9 -10 -9 4 0 20 28 23 54 4z"/>
<path d="M5805 7565 c-29 -28 -31 -42 -9 -73 31 -45 114 -19 114 36 0 26 -37
62 -62 62 -11 0 -30 -11 -43 -25z"/>
<path d="M3145 7229 c-4 -6 -5 -12 -2 -15 2 -3 7 2 10 11 7 17 1 20 -8 4z"/>
<path d="M3121 7164 c0 -11 3 -14 6 -6 3 7 2 16 -1 19 -3 4 -6 -2 -5 -13z"/>
<path d="M7261 6384 c0 -11 3 -14 6 -6 3 7 2 16 -1 19 -3 4 -6 -2 -5 -13z"/>
<path d="M7262 6275 c0 -16 2 -22 5 -12 2 9 2 23 0 30 -3 6 -5 -1 -5 -18z"/>
<path d="M7252 6150 c0 -14 2 -19 5 -12 2 6 2 18 0 25 -3 6 -5 1 -5 -13z"/>
<path d="M4990 8160 c0 -5 7 -10 16 -10 8 0 12 5 9 10 -3 6 -10 10 -16 10 -5
0 -9 -4 -9 -10z"/>
<path d="M5231 8154 c0 -11 3 -14 6 -6 3 7 2 16 -1 19 -3 4 -6 -2 -5 -13z"/>
<path d="M5140 8146 c0 -15 27 -29 40 -21 5 3 6 13 3 22 -6 15 -7 14 -14 -3
-7 -17 -8 -17 -8 -1 -1 20 -21 24 -21 3z"/>
<path d="M3770 7817 c-37 -19 -41 -80 -6 -102 33 -22 73 -13 88 20 15 33 3 69
-27 83 -31 14 -25 14 -55 -1z"/>
<path d="M4067 7402 c-22 -24 -21 -65 1 -85 40 -36 102 -9 102 45 0 51 -69 78
-103 40z"/>
<path d="M4966 5089 c2 -4 0 -10 -6 -14 -15 -9 -12 -22 4 -22 8 0 12 6 9 14
-7 18 27 29 38 12 5 -8 7 -20 4 -26 -2 -7 -1 -13 4 -13 5 0 11 11 13 25 3 13
2 22 -3 20 -4 -3 -10 -1 -14 5 -3 5 -17 9 -30 8 -13 -1 -22 -5 -19 -9z"/>
<path d="M5070 5073 c0 -14 1 -24 3 -22 1 2 8 11 15 20 10 14 10 18 -3 23 -11
4 -15 -1 -15 -21z"/>
<path d="M5260 5089 c0 -7 3 -9 7 -6 3 4 13 1 21 -6 13 -10 14 -9 10 3 -6 19
-38 26 -38 9z"/>
<path d="M5333 5086 c0 -8 8 -11 20 -8 14 4 16 7 5 13 -19 12 -25 11 -25 -5z"/>
<path d="M6665 6460 c-10 -11 -16 -22 -14 -24 2 -2 12 7 22 20 22 29 17 32 -8
4z"/>
<path d="M6643 6401 c0 -11 5 -17 9 -15 5 3 6 9 3 14 -3 4 1 11 7 13 8 4 7 6
-4 6 -11 1 -16 -6 -15 -18z"/>
<path d="M6075 5975 c-14 -13 -25 -33 -25 -45 0 -11 11 -32 25 -45 13 -14 34
-25 45 -25 12 0 32 11 45 25 14 13 25 34 25 45 0 12 -11 32 -25 45 -13 14 -33
25 -45 25 -11 0 -32 -11 -45 -25z"/>
<path d="M3300 6767 c0 -104 2 -115 22 -133 12 -10 18 -13 13 -5 -5 10 -4 12
4 7 6 -4 9 -11 6 -16 -7 -11 584 -612 595 -605 5 3 2 -9 -7 -26 -38 -77 15
-169 98 -169 33 0 47 6 75 34 76 76 16 194 -94 183 l-43 -5 -313 320 c-190
194 -316 314 -319 306 -3 -7 -3 22 -1 65 3 63 1 77 -11 77 -11 0 -15 11 -15
36 0 19 4 33 9 30 4 -3 6 -17 3 -31 -2 -14 0 -25 5 -25 7 0 8 19 4 63 -1 4 -8
7 -16 7 -12 0 -15 -19 -15 -113z m765 -757 c-3 -5 1 -12 8 -17 19 -11 37 -47
37 -73 0 -53 -80 -88 -126 -55 -12 8 -23 13 -25 11 -2 -3 -5 13 -7 33 -3 47
25 86 68 95 17 3 29 10 25 16 -3 6 0 7 9 4 9 -3 14 -10 11 -14z"/>
<path d="M3980 5970 c-11 -11 -20 -28 -20 -39 0 -29 39 -71 66 -71 25 0 74 40
74 60 0 16 -21 53 -34 62 -21 14 -66 8 -86 -12z"/>
<path d="M6945 6345 c-45 -44 -21 -105 40 -105 62 0 87 71 39 109 -34 27 -50
26 -79 -4z"/>
<path d="M3510 5670 c-39 -39 -11 -110 43 -110 54 0 80 78 37 112 -29 23 -55
23 -80 -2z"/>
<path d="M6381 5304 c-26 -33 -27 -58 -1 -84 55 -55 139 17 93 79 -28 37 -65
39 -92 5z"/>
<path d="M3155 3678 c-3 -7 -4 -157 -3 -332 l3 -319 77 -1 77 -1 3 130 3 130
138 3 137 3 0 -134 0 -134 80 -1 80 0 0 334 0 334 -80 0 -80 0 0 -130 0 -130
-141 0 -140 0 2 128 1 127 -76 3 c-56 2 -78 -1 -81 -10z"/>
<path d="M3932 3448 c3 -227 4 -246 25 -283 29 -55 78 -100 138 -127 75 -33
200 -32 275 3 67 32 106 69 134 129 19 41 21 66 24 283 l4 237 -81 0 -80 0 -3
-217 c-3 -237 -9 -263 -64 -300 -34 -22 -114 -22 -148 0 -58 38 -61 52 -64
294 l-3 223 -80 0 -81 0 4 -242z"/>
<path d="M4702 3358 l3 -333 77 0 78 0 1 200 0 200 90 -177 89 -178 53 0 52 0
92 183 92 182 0 -207 1 -207 76 2 77 2 0 330 1 330 -105 3 -105 3 -90 -188
-90 -187 -91 187 -92 187 -106 0 -105 0 2 -332z"/>
<path d="M5886 3658 c-8 -18 -68 -165 -135 -326 -67 -161 -121 -296 -121 -300
0 -4 37 -7 81 -7 l81 0 25 68 25 68 136 -3 135 -3 28 -65 27 -65 81 0 c45 0
81 2 81 3 0 4 -212 519 -252 615 l-20 47 -80 0 -79 0 -13 -32z m127 -265 c19
-46 32 -83 29 -84 -38 -5 -132 -2 -132 4 0 8 64 167 66 164 1 -1 17 -39 37
-84z"/>
<path d="M6470 3358 l0 -333 77 0 78 0 5 198 5 198 151 -198 151 -198 74 0 74
1 3 332 2 333 -81 -3 -81 -3 2 -192 c0 -106 -3 -193 -7 -193 -4 0 -73 88 -152
195 l-144 195 -79 0 -78 0 0 -332z"/>
<path d="M6162 2845 c-94 -26 -151 -66 -201 -139 -64 -93 -78 -238 -32 -340
30 -68 101 -139 174 -172 52 -24 75 -28 147 -29 104 0 171 21 240 76 154 122
168 366 28 509 -84 87 -238 128 -356 95z m171 -138 c45 -19 105 -89 113 -132
3 -20 4 -62 2 -95 -5 -63 -32 -110 -91 -154 -42 -31 -141 -33 -192 -4 -102 60
-133 201 -67 307 48 78 152 112 235 78z"/>
<path d="M2690 2505 l0 -335 75 0 75 0 0 130 0 130 125 0 125 0 0 70 0 70
-125 0 -125 0 0 65 0 65 139 0 139 0 4 70 3 70 -217 0 -218 0 0 -335z"/>
<path d="M3250 2506 l0 -336 80 0 80 0 0 118 0 118 42 -5 c41 -6 43 -8 111
-118 l69 -113 89 0 89 0 -26 43 c-15 23 -49 75 -76 115 -59 88 -65 102 -44
102 29 0 92 73 106 123 29 107 -12 209 -105 256 -47 25 -59 26 -232 29 l-183
4 0 -336z m353 176 c35 -30 29 -97 -12 -129 -10 -7 -49 -12 -98 -13 l-83 0 0
83 0 82 88 -5 c52 -3 96 -11 105 -18z"/>
<path d="M3935 2507 l0 -332 228 -3 227 -2 0 74 0 75 -147 0 -148 0 -3 60 -3
61 131 0 130 0 0 71 0 70 -127 -2 -128 -1 0 62 0 62 148 -1 147 -2 0 71 0 70
-227 0 -228 0 0 -333z"/>
<path d="M4540 2505 l0 -335 230 0 230 0 0 75 0 76 -152 -2 -153 -1 -3 61 -3
61 136 0 136 0 -3 68 -3 67 -130 2 -130 1 -3 61 -3 61 151 0 150 0 0 70 0 70
-225 0 -225 0 0 -335z"/>
<path d="M5150 2504 l0 -336 178 4 c140 4 187 9 225 24 77 30 138 82 172 149
28 54 30 66 30 164 0 96 -3 111 -27 157 -45 85 -122 141 -226 163 -29 6 -120
11 -202 11 l-150 0 0 -336z m357 175 c29 -14 52 -35 69 -65 23 -39 26 -53 22
-118 -6 -125 -63 -174 -207 -179 l-81 -3 0 193 0 193 77 0 c57 0 88 -5 120
-21z"/>
<path d="M6770 2505 l0 -335 80 0 81 0 -3 195 c-2 107 -1 195 2 195 3 0 42
-74 88 -165 l82 -165 48 0 47 0 85 171 c47 94 87 172 90 174 3 2 4 -89 2 -201
l-3 -204 75 0 76 0 0 335 0 336 -97 -3 -96 -3 -87 -182 -87 -182 -91 185 -91
184 -101 0 -100 0 0 -335z"/>
<path d="M4282 1945 c-209 -91 -227 -370 -32 -479 49 -27 64 -31 135 -31 70 0
87 4 134 30 98 54 148 146 138 255 -9 98 -66 178 -157 219 -54 25 -168 28
-218 6z m190 -97 c55 -31 83 -80 83 -148 0 -176 -223 -244 -310 -96 -40 68
-32 160 18 215 50 54 141 67 209 29z"/>
<path d="M3500 1905 l0 -45 75 0 75 0 0 -210 0 -210 50 0 50 0 0 210 0 210 80
0 80 0 0 45 0 45 -205 0 -205 0 0 -45z"/>
<path d="M4911 1695 l0 -255 49 0 50 0 0 110 c0 61 3 110 8 110 4 0 51 -50
105 -110 l99 -110 70 0 70 0 -103 113 c-57 61 -112 122 -122 134 l-20 22 60
63 c33 35 83 89 113 121 l53 57 -64 0 -64 1 -102 -108 -103 -108 0 108 0 107
-50 0 -49 0 0 -255z"/>
<path d="M5570 1695 l0 -255 180 0 180 0 0 45 0 45 -130 0 -130 0 0 60 0 60
110 0 110 0 0 45 0 45 -110 0 -110 0 0 60 0 60 125 0 125 0 0 45 0 45 -175 0
-175 0 0 -255z"/>
<path d="M6200 1695 l0 -255 50 0 50 0 2 167 3 167 130 -166 130 -167 53 0 52
-1 0 255 0 255 -55 0 -55 0 -2 -164 -3 -165 -129 165 -129 164 -49 0 -48 0 0
-255z"/>
</g>
</svg>
